#!OML:ASF H:\Martial Arts Walks\Project 1\Capture day 1\Session 1\male.ASF
:FULLY-SPECIFIED
:DEGREES
938
root -2.47801 14.0265 15.7088 6.57853 45.2101 2.24073
lowerback 15.2441 0.217542 -8.93791
upperback -2.1915 -1.25215 1.58784
thorax -10.8228 0.0253459 7.14888
lowerneck 4.40054 -13.4662 -14.0428
upperneck -2.0857 -18.5969 14.6844
head 1.38463 -9.43796 6.18955
rclavicle 1.6027e-015 -2.15681e-014
rhumerus -1.01473 -13.2029 -63.6771
rradius 80.9543
rwrist 20.6098
rhand -45.01 -36.2153
rfingers 7.12502
rthumb -17.7932 -65.4213
lclavicle 1.6027e-015 -2.15681e-014
lhumerus -48.9009 -39.1618 115.485
lradius 97.9396
lwrist 78.6462
lhand -1.17961 41.9777
lfingers 7.12502
lthumb 24.46 70.436
rfemur -64.9474 -34.4141 21.1007
rtibia 73.2208
rfoot -11.2703 -12.6466
rtoes 3.6733
lfemur -21.3998 31.2668 -5.86263
ltibia 70.666
lfoot -28.7979 23.1115
ltoes -25.3545
939
root -2.4802 14.0439 15.7784 6.92856 44.5845 2.47084
lowerback 15.2819 0.170734 -8.88371
upperback -2.22528 -1.31478 1.53741
thorax -10.8727 -0.00577994 7.07792
lowerneck 4.26557 -13.3349 -13.9398
upperneck -2.10652 -18.3955 14.6174
head 1.3556 -9.33265 6.16418
rclavicle 9.96408e-015 6.4605e-015
rhumerus -0.866372 -12.743 -63.6728
rradius 80.4153
rwrist 20.5482
rhand -44.789 -36.2666
rfingers 7.12502
rthumb -17.5806 -65.4917
lclavicle 9.96408e-015 6.4605e-015
lhumerus -48.0312 -39.1966 115.291
lradius 97.0377
lwrist 78.649
lhand -2.8394 41.8872
lfingers 7.12502
lthumb 22.8681 70.5513
rfemur -65.3108 -34.2316 21.4801
rtibia 73.4939
rfoot -11.534 -13.7166
rtoes 4.96927
lfemur -20.8819 31.406 -5.88669
ltibia 70.0249
lfoot -28.401 23.3837
ltoes -25.4194
940
root -2.48179 14.0619 15.8508 7.27801 43.9366 2.69724
lowerback 15.3195 0.115209 -8.82998
upperback -2.26251 -1.38913 1.48833
thorax -10.9244 -0.0421958 7.0117
lowerneck 4.11337 -13.194 -13.834
upperneck -2.12434 -18.1796 14.5529
head 1.32855 -9.21955 6.13868
rclavicle 6.46547e-014 -4.18442e-014
rhumerus -0.719978 -12.2621 -63.6626
rradius 79.8438
rwrist 20.4516
rhand -44.5364 -36.2816
rfingers 7.12502
rthumb -17.3375 -65.5283
lclavicle 6.46547e-014 -4.18442e-014
lhumerus -47.0819 -39.243 115.086
lradius 96.0822
lwrist 78.6691
lhand -4.40938 41.7457
lfingers 7.12502
lthumb 21.3608 70.5883
rfemur -65.6624 -34.0553 21.865
rtibia 73.764
rfoot -11.8145 -14.7904
rtoes 6.2552
lfemur -20.3338 31.5445 -5.91209
ltibia 69.3503
lfoot -27.996 23.6549
ltoes -25.4605
941
root -2.4828 14.0805 15.9262 7.62644 43.2637 2.91588
lowerback 15.3534 0.0530837 -8.77565
upperback -2.30282 -1.47179 1.44087
thorax -10.9762 -0.0824535 6.94897
lowerneck 3.94388 -13.0434 -13.7243
upperneck -2.14367 -17.9488 14.4913
head 1.30208 -9.09849 6.11318
rclavicle 1.85864e-014 4.67144e-015
rhumerus -0.580646 -11.759 -63.6437
rradius 79.247
rwrist 20.3066
rhand -44.2586 -36.2645
rfingers 7.12502
rthumb -17.0701 -65.5345
lclavicle 1.85864e-014 4.67144e-015
lhumerus -46.0544 -39.3036 114.87
lradius 95.0807
lwrist 78.7161
lhand -5.8768 41.5844
lfingers 7.12502
lthumb 19.9508 70.5802
rfemur -66.0009 -33.8787 22.2558
rtibia 74.0257
rfoot -12.1038 -15.8602
rtoes 7.48237
lfemur -19.7579 31.6806 -5.9387
ltibia 68.6424
lfoot -27.5842 23.9261
ltoes -25.475
942
root -2.48328 14.0995 16.0048 7.97275 42.5635 3.12264
lowerback 15.3797 -0.013365 -8.71931
upperback -2.34561 -1.55902 1.39522
thorax -11.0257 -0.125019 6.88807
lowerneck 3.75884 -12.8833 -13.61
upperneck -2.16995 -17.7031 14.4318
head 1.27423 -8.96959 6.08771
rclavicle -9.34039e-014 -3.77691e-015
rhumerus -0.453083 -11.2301 -63.6142
rradius 78.6323
rwrist 20.1001
rhand -43.9538 -36.2404
rfingers 7.12502
rthumb -16.7767 -65.5356
lclavicle -9.34039e-014 -3.77691e-015
lhumerus -44.9518 -39.3796 114.647
lradius 94.0421
lwrist 78.8008
lhand -7.25633 41.448
lfingers 7.12502
lthumb 18.6243 70.5764
rfemur -66.3247 -33.6971 22.654
rtibia 74.2737
rfoot -12.3974 -16.9142
rtoes 8.61557
lfemur -19.1559 31.8104 -5.96622
ltibia 67.9012
lfoot -27.1646 24.2009
ltoes -25.4613
943
root -2.48317 14.1191 16.0869 8.31455 41.8349 3.31354
lowerback 15.3941 -0.0825013 -8.65936
upperback -2.38969 -1.64783 1.35181
thorax -11.0698 -0.168795 6.82764
lowerneck 3.56062 -12.7141 -13.4896
upperneck -2.20747 -17.4428 14.3707
head 1.24297 -8.83308 6.06128
rclavicle -1.85715e-013 5.56597e-015
rhumerus -0.340121 -10.67 -63.574
rradius 78.0044
rwrist 19.8225
rhand -43.6248 -36.2385
rfingers 7.12502
rthumb -16.46 -65.5603
lclavicle -1.85715e-013 5.56597e-015
lhumerus -43.7797 -39.4698 114.419
lradius 92.9765
lwrist 78.9353
lhand -8.57268 41.3676
lfingers 7.12502
lthumb 17.3577 70.6125
rfemur -66.632 -33.5096 23.0621
rtibia 74.5044
rfoot -12.6961 -17.94
rtoes 9.64143
lfemur -18.5278 31.929 -5.9936
ltibia 67.1263
lfoot -26.7361 24.4827
ltoes -25.4162
944
root -2.48237 14.1393 16.173 8.64935 41.0785 3.48785
lowerback 15.3925 -0.153623 -8.59616
upperback -2.43304 -1.73689 1.31046
thorax -11.104 -0.213467 6.76713
lowerneck 3.35223 -12.5352 -13.3617
upperneck -2.25852 -17.1674 14.3032
head 1.20656 -8.68875 6.03264
rclavicle 8.33156e-014 1.07344e-014
rhumerus -0.241433 -10.073 -63.5241
rradius 77.3643
rwrist 19.4701
rhand -43.2726 -36.2834
rfingers 7.12502
rthumb -16.1209 -65.6329
lclavicle 8.33156e-014 1.07344e-014
lhumerus -42.5448 -39.5709 114.188
lradius 91.8939
lwrist 79.1294
lhand -9.84846 41.3588
lfingers 7.12502
lthumb 16.1296 70.7076
rfemur -66.9188 -33.3207 23.4807
rtibia 74.7161
rfoot -13.0029 -18.9276
rtoes 10.5596
lfemur -17.8698 32.0312 -6.01962
ltibia 66.3172
lfoot -26.2991 24.7712
ltoes -25.3354
945
root -2.48072 14.1601 16.2634 8.97293 40.2963 3.64564
lowerback 15.3724 -0.227209 -8.52993
upperback -2.47359 -1.82661 1.27099
thorax -11.1244 -0.259508 6.70632
lowerneck 3.13761 -12.345 -13.2237
upperneck -2.32287 -16.875 14.2215
head 1.16331 -8.53575 5.99948
rclavicle -8.94531e-016 7.55382e-015
rhumerus -0.154394 -9.43463 -63.4677
rradius 76.7092
rwrist 19.0514
rhand -42.9024 -36.3855
rfingers 7.12502
rthumb -15.7644 -65.7635
lclavicle -8.94531e-016 7.55382e-015
lhumerus -41.2553 -39.6783 113.956
lradius 90.8051
lwrist 79.3856
lhand -11.0983 41.4196
lfingers 7.12502
lthumb 14.9258 70.8619
rfemur -67.1784 -33.1383 23.9085
rtibia 74.9085
rfoot -13.3217 -19.8705
rtoes 11.3844
lfemur -17.1758 32.1112 -6.04158
ltibia 65.4744
lfoot -25.8547 25.0624
ltoes -25.2145
946
root -2.47803 14.1818 16.3582 9.27864 39.4925 3.78411
lowerback 15.3322 -0.305176 -8.45782
upperback -2.50955 -1.91871 1.2339
thorax -11.1276 -0.30815 6.64435
lowerneck 2.92044 -12.1406 -13.0726
upperneck -2.39687 -16.5621 14.1168
head 1.11239 -8.37248 5.95916
rclavicle -6.60959e-015 1.19271e-014
rhumerus -0.0745051 -8.75403 -63.4104
rradius 76.0345
rwrist 18.5899
rhand -42.5187 -36.535
rfingers 7.12502
rthumb -15.3948 -65.9418
lclavicle -6.60959e-015 1.19271e-014
lhumerus -39.9197 -39.7892 113.727
lradius 89.7199
lwrist 79.6871
lhand -12.3193 41.5372
lfingers 7.12502
lthumb 13.7493 71.0629
rfemur -67.4012 -32.9716 24.3455
rtibia 75.0808
rfoot -13.6536 -20.766
rtoes 12.1284
lfemur -16.4408 32.1621 -6.05275
ltibia 64.6016
lfoot -25.4034 25.3477
ltoes -25.0519
947
root -2.47422 14.2044 16.4575 9.55913 38.6711 3.899
lowerback 15.2725 -0.38992 -8.37589
upperback -2.54031 -2.01559 1.20035
thorax -11.1131 -0.360786 6.58079
lowerneck 2.70435 -11.9178 -12.9061
upperneck -2.47393 -16.2243 13.9811
head 1.05383 -8.19667 5.90916
rclavicle 5.5933e-014 -4.39314e-014
rhumerus 0.00418901 -8.0335 -63.3595
rradius 75.3345
rwrist 18.1239
rhand -42.1235 -36.7056
rfingers 7.12502
rthumb -15.0142 -66.1412
lclavicle 5.5933e-014 -4.39314e-014
lhumerus -38.5466 -39.9044 113.501
lradius 88.6508
lwrist 80.0023
lhand -13.4954 41.698
lfingers 7.12502
lthumb 12.6156 71.297
rfemur -67.5763 -32.8268 24.791
rtibia 75.2306
rfoot -13.9932 -21.6121
rtoes 12.7897
lfemur -15.6626 32.1735 -6.04444
ltibia 63.7087
lfoot -24.9402 25.6158
ltoes -24.8554
948
root -2.46931 14.2283 16.5611 9.80703 37.8365 3.98433
lowerback 15.1977 -0.483623 -8.27834
upperback -2.56648 -2.11935 1.17197
thorax -11.0837 -0.418526 6.51472
lowerneck 2.49132 -11.6724 -12.7236
upperneck -2.54528 -15.8567 13.809
head 0.989077 -8.00598 5.84771
rclavicle -1.84621e-014 3.97569e-015
rhumerus 0.0870809 -7.28049 -63.3253
rradius 74.606
rwrist 17.7006
rhand -41.7094 -36.8541
rfingers 7.12502
rthumb -14.6152 -66.3191
lclavicle -1.84621e-014 3.97569e-015
lhumerus -37.1452 -40.0327 113.283
lradius 87.6177
lwrist 80.2903
lhand -14.5999 41.8977
lfingers 7.12502
lthumb 11.5507 71.5594
rfemur -67.6924 -32.7054 25.244
rtibia 75.3529
rfoot -14.3299 -22.4037
rtoes 13.3517
lfemur -14.8448 32.1289 -6.00749
ltibia 62.8139
lfoot -24.4492 25.856
ltoes -24.6478
949
root -2.46353 14.2534 16.6684 10.0169 36.9898 4.03444
lowerback 15.1139 -0.587082 -8.16237
upperback -2.58931 -2.23101 1.15085
thorax -11.0446 -0.481608 6.44737
lowerneck 2.28072 -11.4008 -12.5254
upperneck -2.60129 -15.4556 13.5982
head 0.920832 -7.7984 5.77376
rclavicle -4.06266e-014 1.35174e-014
rhumerus 0.180099 -6.50438 -63.3202
rradius 73.8494
rwrist 17.367
rhand -41.2584 -36.9327
rfingers 7.12502
rthumb -14.1806 -66.4287
lclavicle -4.06266e-014 1.35174e-014
lhumerus -35.7241 -40.1926 113.076
lradius 86.6514
lwrist 80.5129
lhand -15.5978 42.1391
lfingers 7.12502
lthumb 10.5882 71.8524
rfemur -67.7411 -32.6003 25.7028
rtibia 75.4408
rfoot -14.6495 -23.129
rtoes 13.7864
lfemur -13.999 32.0059 -5.93511
ltibia 61.9469
lfoot -23.9006 26.0573
ltoes -24.4637
950
root -2.45731 14.2799 16.7791 10.1869 36.1297 4.04939
lowerback 15.0308 -0.699353 -8.03144
upperback -2.60987 -2.35087 1.13776
thorax -11.0025 -0.549489 6.38205
lowerneck 2.07094 -11.1008 -12.3138
upperneck -2.63481 -15.0184 13.3517
head 0.852073 -7.57262 5.68798
rclavicle 2.98674e-014 1.98785e-016
rhumerus 0.290115 -5.71529 -63.358
rradius 73.0679
rwrist 17.1606
rhand -40.7455 -36.8978
rfingers 7.12502
rthumb -13.6863 -66.4278
lclavicle 2.98674e-014 1.98785e-016
lhumerus -34.2891 -40.4117 112.886
lradius 85.7961
lwrist 80.6462
lhand -16.4529 42.4337
lfingers 7.12502
lthumb 9.76325 72.1874
rfemur -67.7162 -32.4995 26.1603
rtibia 75.4877
rfoot -14.9374 -23.7668
rtoes 14.0625
lfemur -13.1447 31.7755 -5.82854
ltibia 61.1491
lfoot -23.2514 26.2093
ltoes -24.3416
951
root -2.45119 14.3076 16.8926 10.3185 35.2532 4.03419
lowerback 14.9586 -0.818277 -7.89499
upperback -2.62829 -2.47886 1.13214
thorax -10.9635 -0.621175 6.32397
lowerneck 1.85905 -10.7722 -12.091
upperneck -2.64277 -14.5451 13.0773
head 0.785577 -7.32865 5.59237
rclavicle 1.29881e-013 -1.19271e-015
rhumerus 0.423899 -4.92104 -63.4533
rradius 72.268
rwrist 17.1011
rhand -40.1397 -36.7174
rfingers 7.12502
rthumb -13.1025 -66.2858
lclavicle 1.29881e-013 -1.19271e-015
lhumerus -32.8413 -40.7267 112.716
lradius 85.1073
lwrist 80.6948
lhand -17.1355 42.7846
lfingers 7.12502
lthumb 9.10457 72.5681
rfemur -67.6156 -32.387 26.6062
rtibia 75.4879
rfoot -15.1829 -24.2889
rtoes 14.1598
lfemur -12.3122 31.4054 -5.69828
ltibia 60.4741
lfoot -22.4487 26.3024
ltoes -24.3094
952
root -2.44577 14.3363 17.0084 10.4154 34.3569 3.99614
lowerback 14.9058 -0.940706 -7.76499
upperback -2.64337 -2.6139 1.13193
thorax -10.9311 -0.695284 6.27784
lowerneck 1.64333 -10.4173 -11.8594
upperneck -2.62802 -14.0388 12.7876
head 0.722857 -7.06809 5.49045
rclavicle 3.16068e-014 1.78906e-015
rhumerus 0.588146 -4.12675 -63.6189
rradius 71.456
rwrist 17.1879
rhand -39.4136 -36.3809
rfingers 7.12502
rthumb -12.4024 -65.993
lclavicle 3.16068e-014 1.78906e-015
lhumerus -31.3736 -41.18 112.564
lradius 84.6445
lwrist 80.6892
lhand -17.6236 43.1902
lfingers 7.12502
lthumb 8.6336 72.9936
rfemur -67.4392 -32.2468 27.0294
rtibia 75.4384
rfoot -15.379 -24.6681
rtoes 14.0732
lfemur -11.542 30.8647 -5.56135
ltibia 59.9842
lfoot -21.4403 26.3236
ltoes -24.3639
